USFL
nRows=289
nColumns=2
inDegrees=yes
endheader
time	tib_ant_r	
4.35758	 43.802428	
4.39085	 43.779361	
4.42411	 43.772896	
4.45738	 43.779344	
4.49064	 43.771227	
4.5239	 43.778624	
4.55717	 43.780119	
4.59043	 43.788589	
4.6237	 43.791250	
4.65696	 43.834846	
4.69022	 43.906867	
4.72349	 44.046754	
4.75675	 44.095894	
4.79002	 44.105574	
4.82328	 44.132355	
4.85654	 44.166360	
4.88981	 44.145277	
4.92307	 44.199992	
4.95634	 44.279946	
4.9896	 44.260757	
5.02286	 44.257676	
5.05613	 44.269706	
5.08939	 44.265887	
5.12266	 44.242853	
5.15592	 44.234784	
5.18918	 44.256253	
5.22245	 44.276596	
5.25571	 44.261593	
5.28898	 44.280272	
5.32224	 44.270316	
5.3555	 44.247032	
5.38877	 44.285436	
5.42203	 44.189068	
5.4553	 43.993034	
5.48856	 43.805370	
5.52182	 43.772320	
5.55509	 43.725602	
5.58835	 43.811635	
5.62162	 41.148538	
5.65488	 41.146948	
5.68814	 41.173275	
5.72141	 41.151257	
5.75467	 41.197063	
5.78794	 41.217604	
5.8212	 41.214366	
5.85446	 41.227679	
5.88773	 41.187875	
5.92099	 41.213420	
5.95426	 41.218078	
5.98752	 41.206210	
6.02078	 41.266521	
6.05405	 41.314142	
6.08731	 41.317080	
6.12058	 41.307578	
6.15384	 41.298038	
6.1871	 41.311027	
6.22037	 41.299790	
6.25363	 41.251129	
6.2869	 41.363736	
6.32016	 41.421143	
6.35342	 41.171484	
6.38669	 41.257122	
6.41995	 41.248154	
6.45322	 41.202086	
6.48648	 41.240704	
6.51974	 41.190747	
6.55301	 41.238435	
6.58627	 41.343129	
6.61954	 41.360788	
6.6528	 41.398047	
6.68606	 41.419347	
6.71933	 41.405167	
6.75259	 41.443305	
6.78586	 41.420055	
6.81912	 41.283496	
6.85238	 41.348237	
6.88565	 41.152314	
6.91891	 41.126231	
6.95218	 37.884663	
6.98544	 37.720314	
7.0187	 37.692191	
7.05197	 37.506133	
7.08523	 37.425020	
7.1185	 37.400667	
7.15176	 37.306952	
7.18502	 37.286722	
7.21829	 37.280834	
7.25155	 37.194652	
7.28482	 37.207370	
7.31808	 37.215736	
7.35134	 37.166312	
7.38461	 37.154200	
7.41787	 37.107701	
7.45114	 37.104210	
7.4844	 37.104138	
7.51766	 37.107233	
7.55093	 37.059010	
7.58419	 37.401722	
7.61746	 37.210624	
7.65072	 37.205726	
7.68398	 37.041290	
7.71725	 36.908024	
7.75051	 36.909108	
7.78378	 36.463780	
7.81704	 36.373504	
7.8503	 36.400950	
7.88357	 36.375504	
7.91683	 36.217461	
7.9501	 36.176041	
7.98336	 36.108688	
8.01662	 36.087360	
8.04989	 35.989755	
8.08315	 35.926053	
8.11642	 35.908536	
8.14968	 35.942167	
8.18294	 35.946470	
8.21621	 35.912033	
8.24947	 35.956157	
8.28274	 35.980156	
8.316	 36.004282	
8.34926	 35.986148	
8.38253	 35.994061	
8.41579	 35.966073	
8.44906	 35.935409	
8.48232	 35.865694	
8.51558	 35.793869	
8.54885	 35.828974	
8.58211	 35.815911	
8.61538	 35.803197	
8.64864	 35.831222	
8.6819	 35.870365	
8.71517	 35.883323	
8.74843	 35.892971	
8.7817	 35.939673	
8.81496	 35.977562	
8.84822	 35.975391	
8.88149	 35.992532	
8.91475	 36.002060	
8.94802	 35.928959	
8.98128	 35.916534	
9.01454	 35.914486	
9.04781	 35.903692	
9.08107	 35.898092	
9.11434	 35.911891	
9.1476	 35.887789	
9.18086	 35.842576	
9.21413	 35.856220	
9.24739	 35.825902	
9.28066	 35.782895	
9.31392	 35.788094	
9.34718	 35.777869	
9.38045	 35.745587	
9.41371	 35.722105	
9.44698	 35.721299	
9.48024	 35.746536	
9.5135	 35.720553	
9.54677	 35.669487	
9.58003	 36.567351	
9.6133	 36.589770	
9.64656	 36.629343	
9.67982	 36.598579	
9.71309	 36.649517	
9.74635	 36.730116	
9.77962	 36.710455	
9.81288	 36.768931	
9.84614	 36.747693	
9.87941	 36.724424	
9.91267	 36.775143	
9.94594	 36.717703	
9.9792	 36.663332	
10.0125	 36.669840	
10.0457	 36.695478	
10.079	 36.714823	
10.1123	 36.805696	
10.1455	 36.795839	
10.1788	 36.841342	
10.212	 36.840337	
10.2453	 36.810863	
10.2786	 36.837566	
10.3118	 36.838695	
10.3451	 36.874622	
10.3784	 36.892247	
10.4116	 36.909977	
10.4449	 36.900412	
10.4782	 36.877184	
10.5114	 36.857505	
10.5447	 36.814890	
10.578	 36.853011	
10.6112	 36.809249	
10.6445	 36.745360	
10.6777	 36.718864	
10.711	 36.684509	
10.7443	 36.664229	
10.7775	 36.685661	
10.8108	 36.754054	
10.8441	 36.821106	
10.8773	 36.862864	
10.9106	 36.827910	
10.9439	 36.893276	
10.9771	 36.901822	
11.0104	 36.763398	
11.0436	 36.822911	
11.0769	 36.881291	
11.1102	 36.895845	
11.1434	 36.981177	
11.1767	 37.039967	
11.21	 37.039162	
11.2432	 37.065085	
11.2765	 37.007783	
11.3098	 37.036872	
11.343	 37.073831	
11.3763	 37.153591	
11.4096	 37.117904	
11.4428	 37.070017	
11.4761	 37.042188	
11.5093	 37.045428	
11.5426	 37.068882	
11.5759	 37.054857	
11.6091	 37.018077	
11.6424	 36.969078	
11.6757	 36.935764	
11.7089	 36.853073	
11.7422	 36.804281	
11.7755	 36.794861	
11.8087	 36.692338	
11.842	 36.669224	
11.8752	 36.674736	
11.9085	 36.661718	
11.9418	 36.733321	
11.975	 36.656617	
12.0083	 36.661146	
12.0416	 36.680858	
12.0748	 36.698064	
12.1081	 36.696649	
12.1414	 36.766374	
12.1746	 36.850267	
12.2079	 36.855493	
12.2412	 36.891376	
12.2744	 36.938571	
12.3077	 36.962120	
12.3409	 36.921144	
12.3742	 36.904042	
12.4075	 36.923841	
12.4407	 36.947505	
12.474	 36.965647	
12.5073	 36.989126	
12.5405	 36.946395	
12.5738	 36.928302	
12.6071	 36.960847	
12.6403	 36.769508	
12.6736	 36.719658	
12.7068	 36.669781	
12.7401	 36.691955	
12.7734	 36.626367	
12.8066	 36.568670	
12.8399	 36.615083	
12.8732	 36.634151	
12.9064	 36.672002	
12.9397	 36.693855	
12.973	 36.730730	
13.0062	 36.734736	
13.0395	 36.704578	
13.0728	 36.690823	
13.106	 36.648393	
13.1393	 36.615468	
13.1725	 36.621394	
13.2058	 36.625789	
13.2391	 36.626355	
13.2723	 36.644102	
13.3056	 36.629041	
13.3389	 36.544493	
13.3721	 36.568732	
13.4054	 36.522312	
13.4387	 36.537496	
13.4719	 36.577773	
13.5052	 36.576705	
13.5384	 36.587863	
13.5717	 36.554348	
13.605	 36.554790	
13.6382	 36.542665	
13.6715	 36.558019	
13.7048	 36.499598	
13.738	 36.513541	
13.7713	 36.523143	
13.8046	 36.515925	
13.8378	 36.520532	
13.8711	 36.522669	
13.9044	 36.527876	
13.9376	 36.560554	
